<!-- icon666.com - MILLIONS vector ICONS FREE --><svg version="1.1" id="Layer_1" xmlns="http://www.w3.org/2000/svg" xmlns:xlink="http://www.w3.org/1999/xlink" x="0px" y="0px" viewBox="0 0 512 512" style="enable-background:new 0 0 512 512;" xml:space="preserve"><g><g><path d="M292.064,78.925l-79.255-15.853C218.075,44.068,235.342,30,256,30c8.291,0,15-6.709,15-15s-6.709-15-15-15 c-35.198,0-64.585,24.439-72.629,57.184l-59.149-11.832c-46.016-9.353-88.156,31.415-78.871,77.871l6.71,35.603 C58.228,189.646,86.532,212,117.953,212h161.162c28.535,0,54.76-18.193,63.783-45.264 C355.432,129.011,331.111,86.735,292.064,78.925z" fill="#000000" style="fill: rgb(255, 221, 0);"></path></g></g><g><g><path d="M437,422c-13.55,0-26.16-3.27-38.022-8.035C413.447,438.458,422,466.738,422,497c0,5.284-1.082,10.285-2.763,15H467 c8.291,0,15-6.709,15-15v-85.532C468.307,418.023,453.165,422,437,422z" fill="#000000" style="fill: rgb(255, 221, 0);"></path></g></g><g><g><path d="M452,192.404V287c0,8.291-6.709,15-15,15c-8.291,0-15-6.709-15-15v-94.596C407.857,213.19,362,283.127,362,317 c0,41.367,33.633,75,75,75s75-33.633,75-75C512,283.127,466.143,213.19,452,192.404z" fill="#000000" style="fill: rgb(255, 221, 0);"></path></g></g><g><g><path d="M271,363.516V347c0-0.114-0.062-0.207-0.064-0.32C289.08,332.98,301,311.445,301,287v-45H91v45 c0,24.445,11.92,45.98,30.064,59.68c-0.002,0.114-0.064,0.207-0.064,0.32v16.516C53.685,371.089,0,427.693,0,497 c0,8.291,6.709,15,15,15h362c8.291,0,15-6.709,15-15C392,427.693,338.315,371.089,271,363.516z M241,372.459l-45,67.5l-45-67.5 V362c32.694,0,58.793,0,90,0V372.459z" fill="#000000" style="fill: rgb(255, 221, 0);"></path></g></g></svg>