<!-- icon666.com - MILLIONS vector ICONS FREE --><svg version="1.1" id="Layer_1" xmlns="http://www.w3.org/2000/svg" xmlns:xlink="http://www.w3.org/1999/xlink" x="0px" y="0px" viewBox="0 0 512 512" style="enable-background:new 0 0 512 512;" xml:space="preserve"><g><g><path d="M490.438,470.536h-15.63V291.942c0-35.229-28.548-63.907-63.721-64.136v-32.599c0-35.203-28.505-63.862-63.646-64.135 V68.393c0-11.45-9.282-20.732-20.732-20.732s-20.732,9.282-20.732,20.732v62.667h-29.25V20.732C276.727,9.282,267.445,0,255.995,0 s-20.732,9.282-20.732,20.732v110.327H206.25V69.099c0-11.45-9.282-20.732-20.732-20.732s-20.732,9.282-20.732,20.732v61.966 c-35.244,0.149-63.871,28.862-63.871,64.14v32.599c-35.175,0.231-63.723,28.909-63.723,64.136v178.595h-15.63 c-11.45,0-20.732,9.282-20.732,20.732S10.112,512,21.562,512h56.193h356.49h56.193c11.45,0,20.732-9.282,20.732-20.732 S501.888,470.536,490.438,470.536z M336.635,374.051l-23.726,23.126l5.602,32.66c1.482,8.642-2.003,17.213-9.099,22.368 c-7.094,5.155-16.323,5.822-24.086,1.74l-29.327-15.418l-29.329,15.419c-3.375,1.775-7.028,2.651-10.663,2.651 c-4.721,0-9.412-1.479-13.42-4.392c-7.094-5.154-10.582-13.726-9.099-22.37l5.602-32.657l-23.728-23.13 c-6.278-6.117-8.496-15.1-5.788-23.439c2.709-8.34,9.781-14.306,18.46-15.568l32.795-4.766l14.664-29.713 c3.878-7.862,11.737-12.75,20.508-12.75c8.77,0,16.627,4.886,20.508,12.75l14.663,29.713l32.792,4.766 c8.68,1.262,15.753,7.227,18.462,15.567C345.135,358.948,342.916,367.93,336.635,374.051z" fill="#000000" style="fill: rgb(255, 221, 0);"></path></g></g></svg>