<!-- icon666.com - MILLIONS vector ICONS FREE --><svg id="Layer_1" enable-background="new 0 0 512 512" viewBox="0 0 512 512" xmlns="http://www.w3.org/2000/svg"><g><g><path d="m490.667 448h-10.667v-53.333c0-37.504-27.904-68.352-64-73.579v-161.088c0-88.235-71.765-160-160-160s-160 71.765-160 160v161.088c-36.096 5.227-64 36.075-64 73.579v53.333h-10.667c-5.888 0-10.667 4.779-10.667 10.667v42.667c0 5.888 4.779 10.667 10.667 10.667h469.333c5.888 0 10.667-4.779 10.667-10.667v-42.667c0-5.888-4.778-10.667-10.666-10.667zm-394.667 0h-42.667v-53.333c0-25.771 18.347-47.296 42.667-52.267zm202.667-149.333h-85.333c-5.888 0-10.667-4.779-10.667-10.667s4.779-10.667 10.667-10.667h85.333c5.888 0 10.667 4.779 10.667 10.667s-4.779 10.667-10.667 10.667zm21.333-64h-128c-5.888 0-10.667-4.779-10.667-10.667s4.779-10.667 10.667-10.667h128c5.888 0 10.667 4.779 10.667 10.667s-4.779 10.667-10.667 10.667zm0-64h-128c-5.888 0-10.667-4.779-10.667-10.667s4.779-10.667 10.667-10.667h128c5.888 0 10.667 4.779 10.667 10.667s-4.779 10.667-10.667 10.667zm138.667 277.333h-42.667v-105.6c24.32 4.971 42.667 26.496 42.667 52.267z" fill="#000000" style="fill: rgb(255, 221, 0);"></path></g></g><g></g><g></g><g></g><g></g><g></g><g></g><g></g><g></g><g></g><g></g><g></g><g></g><g></g><g></g><g></g></svg>